/* XPM */
static char *result[] = {
/* columns rows colors chars-per-pixel */
"32 32 93 2 ",
"   c #485563",
".  c #4B5264",
"X  c #485B69",
"o  c #515E6C",
"O  c #436671",
"+  c #4A6372",
"@  c #496374",
"#  c #486776",
"$  c #4D6E7C",
"%  c #5C6771",
"&  c #5A6674",
"*  c #5F6A73",
"=  c #506E7E",
"-  c #666C78",
";  c #65707C",
":  c #69747E",
">  c #507281",
",  c #567382",
"<  c #567785",
"1  c #5C7A83",
"2  c #587987",
"3  c #547A88",
"4  c #667C86",
"5  c #6A7C87",
"6  c #6B7E8D",
"7  c #707C89",
"8  c #5C8693",
"9  c #5E8693",
"0  c #5E8A9A",
"q  c #5F8D98",
"w  c #69828D",
"e  c #6E828E",
"r  c #6B8893",
"t  c #648B9B",
"y  c #6C8D98",
"u  c #768790",
"i  c #758B94",
"p  c #798993",
"a  c #728D99",
"s  c #63909F",
"d  c #73919E",
"f  c #7F9198",
"g  c #7A939F",
"h  c #6F9AA5",
"j  c #6B9CAA",
"k  c #7F97A2",
"l  c #7298A4",
"z  c #7E99A3",
"x  c #67A0AF",
"c  c #7BA3AD",
"v  c #75A5B1",
"b  c #7EABB8",
"n  c #78AFB9",
"m  c #71B1BF",
"M  c #75B5C3",
"N  c #869EA9",
"B  c #81A0A9",
"V  c #92A1AA",
"C  c #81AAB3",
"Z  c #87A8B4",
"A  c #93AEBA",
"S  c #85B0BB",
"D  c #87B2BC",
"F  c #82B4BF",
"G  c #97B2BC",
"H  c #83B1C0",
"J  c #80B4C1",
"K  c #8BB7C1",
"L  c #8FB5C1",
"P  c #89B8C5",
"I  c #8FBCC6",
"U  c #84C1CF",
"Y  c #92C6D5",
"T  c #95CAD6",
"R  c #A3C9D3",
"E  c #A5C8D1",
"W  c #ABCAD3",
"Q  c #A9CCD3",
"!  c #B0CED4",
"~  c #A3D7DF",
"^  c #B8D7DF",
"/  c #A4D8E2",
"(  c #ACD8E2",
")  c #B0D8E2",
"_  c #BFE2E9",
"`  c #BEE8EF",
"'  c #C7E3EA",
"]  c #C7E9F3",
"[  c #CAE8F1",
"{  c #CFEAF1",
"}  c #D3EFF5",
"|  c #D3F3FB",
" . c None",
/* pixels */
" . . . . . . . . . . . . . . . . . . . . . . . . . . . . . . . .",
" . . . . . . . . . . . . . . . . . . . . . . . . . . . . . . . .",
" . . . . . . . . . . . . . . . . . . . . . . . . . . . . . . . .",
" . . . . . . . . . . . . . . . . . . . . . . . . . . . . . . . .",
" . . . . . . . . . . . . . . . . . . . . . . . . . . . . . . . .",
" . . . . . . . . . . . . . . . . . . . . . . . . . . . . . . . .",
" . . . . . . . . . . . . . . . .&  . . . . . . . . . . . . . . .",
" . . . . . . . . . . . . . . . . . . . . . . . . . . . . . . . .",
" . . . . . . . . . . . . . . . .6 e  . . . . . . . . . . . . . .",
" . . . . . . . . . . . . . . . . . . . . . . . . . . . . . . . .",
" . . . . . . . . . . . . . . . .l ,  ..  . . . . . . . . . . . .",
" . . . . . . . . . . . . . . . . .N +  . . . . . . . . . . . . .",
" . . . . . . . . . . . . . .A  .t s @  . . . . . . . . . . . . .",
" . . . . . . . . . . . . . . .O P K $ X  . . . . . . . . . . . .",
" . . . . . . . . . . . . .a > h ) R y  . . . . . . . . . . . . .",
" . . . . . . . . . . . . .2 b E [ ' G d  . . . . . . . . . . . .",
" . . . . . . . . . . . .o 0 H ^ { { ! L <  . . . . . . . . . . .",
" . . . . . . . . . . . .7 x U ` | } Q C 3  . . . . . . . . . . .",
" . . . . . . . . . . .  w j m ~ ] _ I q #  . . . . . . . . . . .",
" . . . . . . . . . . . .4 V v W / ( n 8 8  . . . . . . . . . . .",
" . . . . . . . . . . . .= k M F T Y J 9 g  . . . . . . . . . . .",
" . . . . . . . . . . . .; i B c S D Z u  . . . . . . . . . . . .",
" . . . . . . . . . . . . .- 5 r z f p 1  . . . . . . . . . . . .",
" . . . . . . . . . . . . . . .% : *  . . . . . . . . . . . . . .",
" . . . . . . . . . . . . . . . . . . . . . . . . . . . . . . . .",
" . . . . . . . . . . . . . . . . . . . . . . . . . . . . . . . .",
" . . . . . . . . . . . . . . . . . . . . . . . . . . . . . . . .",
" . . . . . . . . . . . . . . . . . . . . . . . . . . . . . . . .",
" . . . . . . . . . . . . . . . . . . . . . . . . . . . . . . . .",
" . . . . . . . . . . . . . . . . . . . . . . . . . . . . . . . .",
" . . . . . . . . . . . . . . . . . . . . . . . . . . . . . . . .",
" . . . . . . . . . . . . . . . . . . . . . . . . . . . . . . . ."
};
