/* XPM */
static char *result[] = {
/* columns rows colors chars-per-pixel */
"68 68 31 1 ",
"  c #040001",
". c #0D0000",
"X c #0D0008",
"o c #110001",
"O c #1C0002",
"+ c #16000A",
"@ c #1A000C",
"# c #160011",
"$ c #1D0013",
"% c #1E0019",
"& c #230002",
"* c #2C0003",
"= c #23000C",
"- c #2C000C",
"; c #330002",
": c #3B0001",
"> c #33000B",
", c #3C000B",
"< c #230014",
"1 c #2B0013",
"2 c #24001A",
"3 c #29001A",
"4 c #330012",
"5 c #3A0011",
"6 c #33001A",
"7 c #230020",
"8 c #430001",
"9 c #4C0000",
"0 c #42000B",
"q c #480009",
"w c #520000",
/* pixels */
"oooo.oo.oo.ooooooooo.oooooooo.ooo$$oooooooooo.+$o.oo.+3#.o.oo.oooo.o",
"o..oooooooooo.o.+oooooo.o@ooo.ooo...ooooo..oo.@$.ooooo@.oooooooooooo",
"oooooo.o.ooo.Oo.++.oooo.o$ooooo.oooo.oo.ooooo.@o.oooo..oooooo..oo..o",
"o.ooo.ooo.o.++.o.@+o.o.+$o..ooooooo.oooooo.o.o+oooo.ooo.oo.ooooooooo",
"o.oo.oo.++o.@+.o.#@.o.@$oo+ooooooo.ooooooooo.oo.ooooo.oooooooooooooo",
"ooooo++O++Oo2+...2$..+<.o$+@ooo..oooo..o.oo.ooooo.o.oooooo.oo..oo..o",
"ooo.o.=& oo+3+..$3+..<1#$o.+$o.oooooooooooooooo.o.ooooo..ooooooooooo",
"o.ooo.o&+o.o1@.$1&.#$>1+o.oo@+oooo.oo.ooo.oo.oooooooo.oooo..o.oooo.o",
"oooo.o.O=+.@-=+3>*++<@o.oo..oooo.oo.ooooo.oo.ooooo.ooo.ooo.+.ooooooo",
"o.ooo...O=.<,:@#<-1+...oo.o+o.o.oooo.oo.ooooooo..ooo.ooo..%2+..o.oo.",
"o.o.ooo.++o#>>o..X@$+ooooo.++.ooooooooooo..ooooooooooo.o+<22+.oooooo",
"ooooo.o.o.@+$$.ooo.o+.o...O=+.oo.oo..oo.oooo.oo.oo.ooo..@23$.oooo.oo",
"oooooooo..<=+<O..oo..o.oo.O3#.oooooooooooooooooo.oo.ooo++22+.ooo.oo.",
"o..o.ooo..==.O&@@oooooooo.O=<o.oo..X.......ooooooooo..+<33o.oo.ooooo",
"ooooooo. O<o..ooooooooooo o=$.o..O*-<<<$ooo..oo.oo.o$2<$72oooooooooo",
"o.oo.o.O*<.oooo.+o.oo..oo+=-22%2<3;;1+-3<22@.oooo.o$3*>22+.oo.oo.oo.",
"o.oooo.&=+.ooooo.$@...o@+23*$74::;+*+.=2$$2$.ooo.+23;;;32O.ooo.ooo.o",
"ooooo.o$+.o.o.o..O3$++$%223><39;,8*...O.+@@+.o.o.#3:;;-2@.oooooooooo",
"oooooo+@+.oooooo..$322233<3><>**-1*.+$2+O@@.oooo.2-;;*<+...o.oo.o..o",
"o..oo.o..ooo.++o.o.<>3231-;;1-  &<#<331*&#$$o.oo.$3--$+@%$o.oooooooo",
"oo.+$o..o$@oo+ooooo+*;>***;,->**-=1;>>*<23<&oooo.+232$-1232ooo.ooooo",
"oo..++oO$++o=$+.ooo#@*;;;;*:5-5,0880>--1<&OOooo.oo+$31;;:>3$.oooo..o",
".ooooo=&+.+2-<%..Oo@2-*;;;;;,,:99888:;;=$#.+$o.+$o.o21;;;;2$.oo.oooo",
"ooooo.ooo.$3;>++o+@O3;:;;::9999988888;<<==+.+<XO<.oo#7-;*;3$o.oooo.o",
".oo.o.o.oo@<>=.@+oo&:,89899wwww888888,-*OO...$2O$+..o$2-;-3<o.oooooo",
"ooooooooo.OoXX<&2+ X@>>0889wwww9:888>-<+..oo.<=.<O.oo.+<3<-<+.oo.oo.",
"oooo.ooooo..+$-<2<+@OO*;;:9w9998888>12<+ooo. ;>#=oooo.O<>*;<+ooooooo",
".oo.oo.oo +@23*-3==OO.O&;,,::8;>8,><=$+..o.+<3=o.oo..+<;;;><..ooo.oo",
"oo.o.ooo+OOO#1;;*@2@o++*1<$==<1--=<=$+ooooo22oX.o...+231>;3$..oo.o..",
"oo..+<+.+OO+==,;;373#o+++.o@+.+<<=<2+oooo.<2o.oooOo$3-*;44$oo@o.Oooo",
".oo.+<o.O.+#+o@==<$oO  ...++oo..O@2@..oo#.$$.oo.O&21;8;*22o.@<oooooo",
"oo.O<+.o.. OO$+...o$oO&=+.++.ooo.oo.o+oo=O+@o.o&<-*::;-3$o..=<+.o@oo",
"ooo+1o.o+&&<@oo.o..+@&Oo$=<#oo.o+o.oo+..<=.o.X&21,>;:-3$.oo2*1#O<o.o",
".o.+1@.+$+<<.o.+$ooo.++..&&@+#@$@.o..o+.--X.+<>;;;,><2+..+23;*<=O.oo",
"oo..13+.oo.@oo.+2oo.+$+...+@oo++.+o.o#+o<3-<3-:,;8;>3O.o+<-*:;>$..o.",
"oo..+32+Xooo.o$<+.o@#OO.@#@+o.++.+3+o=.o23**;:0,:$$oOo.+2-:898;=.oo.",
".oo.o+213@.X=<$+.X<=.<$+<X..o.+-O.2$.&O#>,-:,q,-<$O.XO<3-;:898-<..oO",
"ooooo..&;>@->+..oO<.$+o*O ooo+.o=o@<+o=3>:>0>--2+.oooo@@+<1;;>2$..#+",
"o.+@.o..&;8:& o.@-O#< O><OO +@o.<o+-3%-8,-;,--$o.oooo....+$<<<3<.&<.",
"o.+<.ooo o8; .o.<<.>; .=@OO.+<.+@.+2;,8>--6,1#..oooo.oooo..+$$<===..",
"o.+3ooooO *:&. +-@O8>Oo.@#+.O*.. &-3:,5:122=OOO....O.o@O.O+$231-2 .+",
"o.o2@.ooo.O&;*O#1+*>@&&..*O &;O <->,,*<;*=O  OO.oo.ooo@o..=3--*>@O$@",
"o.o1+.oooo.O<>:=#.O=*&*..&O &,@<>:;>-333+..oo.O+22#+.o<&..O::;;*1&O.",
"..=-+.ooo....=;:=X.o&&O+<@o.O>:**8:12$<>-Xoo..+22312++1; .O:98:*+O.o",
"o.<2.oooo.oo..@,:-X....+@.o O-5:8:>2@oX<,= oooo$3*;-2#>;O**:88:*..oo",
"oo$$.oo.oooooo.#>:=o..o..o.+1;-56+++..  <5+.oo.o<>;::>*;*;:99:>+.o.o",
"o.+@.ooo.oo.o.o.+>:& OooooX;4*;2# ..o<<OX<1..ooo+<>;:8:*:9ww8;1+.ooo",
"oo.@oo.oooooo+oo.+-O.oooo.=;;33$oO+.X+*-X.$=.ooo.o$1>::;:99:;-$.oo.o",
"o.@<.ooo.ooo@$oo..+.oo.o &,1*><..o$=-o.@@..$@.o....+$1;;;*;>-2+.oooo",
"..22.ooooo.#$....O$$.oo..*:;1<+.oooo=2++o.ooooooooo..+<1-<<@#o.oo.o.",
"X+2$.oo.o.o$o.o$.@><.o..&3--3+.oX..o.+@.ooo.oooo.oo.o.+<++....ooooo.",
"o23+.oooo.@@Xo<@.<,@.oo.O>,1+$2<-<#o.+@.ooooo.o.ooooo.&; o.ooooooo..",
"222oo.ooo.+&O&O.X>> ooooX-4<$3;:8;2oooooooooo.oooo.oo.O&.o.oo.oo.oo+",
"1<o.ooooooo-;O..o1@.Ooooo%32$<131>2oo.ooo..ooooo.oooo.++.oooooooo..<",
"3$.oo++.oO.+:& .o2@. .$+.o@+.+#<332o.oo.oooo.ooooo.oo.o+..oo..o..+<-",
"#ooo.@+...o -&.o.2$oO+$.o...+$1-<3@.ooooo.ooooooooooooO.o..o...o@->3",
".oooo$+.ooo.o=+o.+<->-+.+<<$<1133%.oooooo.ooo....o........X.+@&--1<#",
"ooo.#<o.o.oo.o$oo.o+<+.o23-<-<$@+ooo.oo.ooo.O+$###@@@@@O@<=-->>1<#+.",
"oo.+3$.oo.o..@@ooo.. .oo$<;>1$oo.ooooooooo.o.+#$<<3311131>;:>3<#+.oo",
".X<37ooooooo$@.ooooooooooo#->32@ooo.oo.oooo.......+ooo#<>--<$#..oooo",
"+<11#...oo.+@o.o.oo.oo.oo..X+<<+.oo..ooo....+@+$o...X+<-1%++o.oo+..X",
"1--o..o@@o.o.ooooooo.ooooooo.+..oooooo..+o@<$<@ooo.+<43<+..ooooo.o#<",
";32$$2<@+..oo..oooooooooooooo.ooooooo.+<-33<@oo.o..23<+...oo.o..#<1>",
"<<$+@@+..ooooooo.oo.oo.ooo.++oooo.o..@->3%+o...o.o22o..ooo.o+#%<1;;1",
"+.o....ooooooooooooo.oo.oo.o$o.+o.oo<;-<+o...ooo.$$o.ooo..+221*;:><#",
"...oooooo..oo.o..oo.ooooooo.@2@.oo.#33$..oooooo.@2..ooo.o=11;>---12<",
"<@+.o..oooooo.oooooooooooooo.$3$..+22+.ooooooo.+$+.ooo.@33<@Oo++Xo@<",
"o$+.ooooo.oooooooo.o.oo..oo..++22223oooooo.o.o.$$..ooo#32+o......o.."
};
