/* XPM */
static char *result[] = {
/* columns rows colors chars-per-pixel */
"32 32 83 1 ",
"  c #1A2916",
". c #192718",
"X c #1B2719",
"o c #1A2819",
"O c #1B291A",
"+ c #1A281B",
"@ c #1B2C1A",
"# c #1B2E1B",
"$ c #1C2D1B",
"% c #1E2C1B",
"& c #1D2E1C",
"* c #1E2F1D",
"= c #1D2E1E",
"- c #1E2F1F",
"; c #1D301D",
": c #32CB8B",
"> c #35CB8C",
", c #33CC8C",
"< c #74D6AD",
"1 c #75D7AE",
"2 c #71D8AD",
"3 c #73D8AE",
"4 c #74D9AF",
"5 c #76DBB1",
"6 c #77DCB2",
"7 c #76DFB4",
"8 c #79DBB4",
"9 c #7BE2B7",
"0 c #7CE1B7",
"q c #79E2B9",
"w c #7DE7B9",
"e c #7EE9BF",
"r c #7DEDBD",
"t c #7CEDBF",
"y c #7EEEBE",
"u c #76F0BF",
"i c #7EEEC0",
"p c #8ED5B7",
"a c #91DCBB",
"s c #87E6BC",
"d c #8FE7BF",
"f c #82E9BE",
"g c #82ECBE",
"h c #82EDBF",
"j c #83EDBF",
"k c #80EEBF",
"l c #9ADBC3",
"z c #9BDDC2",
"x c #9CDEC3",
"c c #9DDDC5",
"v c #86E5C3",
"b c #8EE5C3",
"n c #8DE4C4",
"m c #82EBC2",
"M c #81ECC0",
"N c #83ECC1",
"B c #82EDC1",
"V c #80EEC1",
"C c #81ECC2",
"Z c #83ECC3",
"A c #82EDC3",
"S c #81EFC2",
"D c #83EEC2",
"F c #87ECC2",
"G c #91EBC7",
"H c #C1FFE6",
"J c #C8FDE3",
"K c #C9FFE5",
"L c #FFFFFB",
"P c #FDFDFD",
"I c #FDFFFC",
"U c #FEFEFC",
"Y c #FFFEFC",
"T c #FEFFFD",
"R c #FFFFFD",
"E c #FFFDFE",
"W c #FFFDFF",
"Q c #FDFFFE",
"! c #FCFFFF",
"~ c #FEFEFE",
"^ c #FFFEFF",
"/ c #FEFFFF",
"( c white",
/* pixels */
"(((((((((~((((((((((~//(((((((((",
"(((((((((~/(((((((((~~((((((((((",
"(((((((((/((~~(~(W~(~(((((((((((",
"((((((((/(((((YURR/~~~((((((((((",
"((((((((((~R(E/~((E(R(((((((((((",
"((((((((/~~(T(~RR((RQ(((((((((((",
"(((((((((R(((((((((/(~R(((((((((",
"((((((((~L~U(1241<3~R(L~((((((((",
"((((((((((((78656666(~l(((((((((",
"(((((((((~(p00BVBq990/(~((((((((",
"((((((((~~(aMVBBDNAew(~(((((((((",
"(((((((((Q(Z>jBA,VSvHy((((((((((",
"(((((((((R(m:VBB,NgDJs~(((((((((",
"((((((((((/fDNBBhkDhiM((((((((((",
"((((((((((~KuVBBVBrBr(((((((((((",
"((((((((~(((GANhBBBiF/R(((((((((",
"((((((((~(~/~dCBBtV~((!(((((((((",
"((((((((~((z(^Ebn(c/~/~(((((((((",
"(((((((((((R(((~(((((((/((((((((",
"(((((((((((((R(//((I(((/((((((((",
"((((((((((((~((~~U(P~(((((((((((",
"((((((((((~(^(((((~/x(~(((((((((",
"(((((((((((((/~(RR(R(U/(((((((((",
"((((((((((~(((((((((((((((((((((",
"((((((((((~((~(((((((Q((((((((((",
"(((((((((~(RR~(oooX~((((((((((((",
"((((((((((((~(#&$$$&(~((((((((((",
"(((((((((~((T#*;*;-@$~((((((((((",
"((((((((((R((~O$=$@%~^/(((((((((",
"(((((((((((((((o .+I(/((((((((((",
"(((((((((~(/(((~((R~U((~((((((((",
"(((((((((((~(((((~(~~((((((((((("
};
