/* XPM */
static char *result[] = {
/* columns rows colors chars-per-pixel */
"32 32 87 1 ",
"  c #192716",
". c #182617",
"X c #182917",
"o c #1A2817",
"O c #1B2817",
"+ c #192718",
"@ c #1A2819",
"# c #18281B",
"$ c #1A281B",
"% c #1B2C1A",
"& c #1C2D1B",
"* c #1D2E1B",
"= c #19291C",
"- c #1A2C1C",
"; c #1B2C1C",
": c #1B2D1D",
"> c #1D2E1C",
", c #1E2F1C",
"< c #1E2F1D",
"1 c #1D301D",
"2 c #32CB8B",
"3 c #33CC8C",
"4 c #72D7AD",
"5 c #74D6AD",
"6 c #75D7AE",
"7 c #76D8AF",
"8 c #75D7B0",
"9 c #77DCB0",
"0 c #77DCB2",
"q c #76DDB2",
"w c #79DBB2",
"e c #79DCB0",
"r c #78DDB3",
"t c #77E0B5",
"y c #7FE0B3",
"u c #7BE2B7",
"i c #78E1B9",
"p c #7AE0B8",
"a c #7AE3B8",
"s c #7EE7BC",
"d c #7FE8BD",
"f c #7CECBC",
"g c #7EECBD",
"h c #7CEDBF",
"j c #7DEDBF",
"k c #7EEEBE",
"l c #7FEDC0",
"z c #7DEEC0",
"x c #7FECC2",
"c c #76F0C1",
"v c #8DD4B6",
"b c #91DDB9",
"n c #86E7BC",
"m c #85E5BF",
"M c #8BE6BD",
"N c #82EEBD",
"B c #81ECBE",
"V c #82EDBF",
"C c #9ADCC1",
"Z c #98DCC3",
"A c #9BDCC6",
"S c #8EE3C6",
"D c #8FE4C5",
"F c #82EBC0",
"G c #84EBC0",
"H c #81ECC0",
"J c #83ECC1",
"K c #82EDC1",
"L c #80EEC1",
"P c #81ECC2",
"I c #80EDC3",
"U c #82EDC3",
"Y c #83EEC2",
"T c #84EEC0",
"R c #87ECC4",
"E c #8FE9C5",
"W c #C3FFE5",
"Q c #C7FFE4",
"! c #C8FEE4",
"~ c #FEFEFC",
"^ c #FFFFFD",
"/ c #FFFDFE",
"( c #FEFEFE",
") c #FEFEFF",
"_ c #FFFEFF",
"` c #FEFFFF",
"' c white",
/* pixels */
"''''''''''''''''''''''''''''''''",
"''''''''''''''''''''''''''''''''",
"''''''''''''''''''''''''''''''''",
"''''''''''''''''''''''''''''''''",
"''''''''''''''''''''''''''''''''",
"''''''''''''''''''''''''''''''''",
"''''''''''''''''''''''''''''''''",
"''''''''''''''''''''''''''''''''",
"''''''''_'''/''''''''('`''''''''",
"'''''''''`'''''^''''A'''''''''''",
"''''''''''(('547686'''''''''''''",
"''''''''''((tw9q0rwe('')''''''''",
"'''''''''''vupHUVipay^''''''''''",
"'''''''''`'bIKVYKYJds''^''''''''",
"'''''''''''V3xKK3YVmWz''''''''''",
"'''''''''''P3HKV2VUFQn''''''''''",
"'''''''''^'GKKKlKYKKjK''''''''''",
"'''''''''``!cPLlKHgNk'`'''''''''",
"''''''''''''EVHVBTHhR''`''''''''",
"'''''''''''/'MPKKfK('''(''''''''",
"''''''''''''(^(DS^Z('(`^''''''''",
"''''''''`'`/'''''''''``'''''''''",
"''''''''_'(''^(`'''C'^'(''''''''",
"''''''''''''`^^'`'''''''''''''''",
"'''''''''''''(''/''(''''''''''''",
"''''''''''`''`#@@@@$^'''''''''''",
"'''''''''''`~o&&>&&&o^_'''''''''",
"'''''''''''(@-*<<,1%:O('''''''''",
"'''''''''('~`@=&>%>;X'^'''''''''",
"'''''''''''^_' .++ +'`(^''''''''",
"''''''''''''(~'``''(`'''''''''''",
"'''''''''''''^'''''(''''''''''''"
};
