/* XPM */
static char *result[] = {
/* columns rows colors chars-per-pixel */
"32 32 167 2 ",
"   c #323749",
".  c #343A4B",
"X  c #373D50",
"o  c #393E53",
"O  c #3A414E",
"+  c #3E4B4F",
"@  c #3C4355",
"#  c #3E4559",
"$  c #475F4B",
"%  c #424D56",
"&  c #40465B",
"*  c #434A5C",
"=  c #4A4E5F",
"-  c #435352",
";  c #495557",
":  c #49525F",
">  c #486446",
",  c #4B6948",
"<  c #496449",
"1  c #4F7441",
"2  c #4F714A",
"3  c #507743",
"4  c #567F47",
"5  c #51714D",
"6  c #55794C",
"7  c #587F4E",
"8  c #4D6356",
"9  c #526A55",
"0  c #54695C",
"q  c #5C6C59",
"w  c #556259",
"e  c #597457",
"r  c #454D64",
"t  c #494F63",
"y  c #465063",
"u  c #4B5264",
"i  c #4E5B62",
"p  c #475068",
"a  c #4B546B",
"s  c #4E5A68",
"d  c #505C63",
"f  c #50566C",
"g  c #525B6B",
"h  c #595E6F",
"j  c #4E5771",
"k  c #535B75",
"l  c #565F78",
"z  c #4F6260",
"x  c #526067",
"c  c #566C65",
"v  c #586961",
"b  c #5B6C6D",
"n  c #54626C",
"m  c #5D7369",
"M  c #556174",
"N  c #5B6472",
"B  c #5A6A70",
"V  c #576079",
"C  c #5A647C",
"Z  c #5E6E79",
"A  c #647D6C",
"S  c #636E7F",
"D  c #696B79",
"F  c #647376",
"G  c #677B77",
"H  c #687D7B",
"J  c #667B77",
"K  c #5C943B",
"L  c #6AA734",
"P  c #76B433",
"I  c #598A41",
"U  c #58824A",
"Y  c #669B40",
"T  c #688359",
"R  c #6A8859",
"E  c #6B9659",
"W  c #729552",
"Q  c #73975D",
"!  c #75AA4A",
"~  c #7CB144",
"^  c #7BA355",
"/  c #6A8768",
"(  c #6D8C6C",
")  c #6A8A62",
"_  c #779D6A",
"`  c #6E8276",
"'  c #73887D",
"]  c #7F9879",
"[  c #7B977C",
"{  c #7DA964",
"}  c #91CF3A",
"|  c #9BDB3C",
" . c #A5E63A",
".. c #82BA45",
"X. c #83A858",
"o. c #87B257",
"O. c #80A869",
"+. c #8FCB42",
"@. c #92C34D",
"#. c #96C554",
"$. c #A7DB53",
"%. c #ABE055",
"&. c #93C062",
"*. c #A4C67D",
"=. c #B3DB79",
"-. c #5F6A83",
";. c #5F6A88",
":. c #5A6380",
">. c #666D84",
",. c #636D8B",
"<. c #667384",
"1. c #67728C",
"2. c #6F7C88",
"3. c #6C7C85",
"4. c #717F80",
"5. c #70778F",
"6. c #6B7491",
"7. c #6E7893",
"8. c #757F96",
"9. c #757E9A",
"0. c #7A878C",
"q. c #7C8696",
"w. c #7C849B",
"e. c #7E86A1",
"r. c #8C9F88",
"t. c #81879B",
"y. c #848A9E",
"u. c #869698",
"i. c #88959F",
"p. c #8A9B9B",
"a. c #94AA95",
"s. c #848BA4",
"d. c #8B92A9",
"f. c #8C99A2",
"g. c #949BAD",
"h. c #919AA3",
"j. c #979EB2",
"k. c #9BA2B4",
"l. c #A0AEA6",
"z. c #A2A6B7",
"x. c #A5AABC",
"c. c #A8AEBC",
"v. c #ACB4BB",
"b. c #B4BDBF",
"n. c #A5C487",
"m. c #AEC797",
"M. c #BED99E",
"N. c #C5D2BF",
"B. c #AEB2C2",
"V. c #B0B5C5",
"C. c #B5BCC3",
"Z. c #B7BCCB",
"A. c #BABFCB",
"S. c #BEC9C0",
"D. c #BDC1CE",
"F. c #C3C6D2",
"G. c #CBCEDA",
"H. c #C6C9D5",
"J. c #CED1DA",
"K. c #D3D6DF",
"L. c #D5D9DC",
"P. c #E2E8DF",
"I. c #DEE1E6",
"U. c #E0E2E7",
"Y. c #E7E9ED",
"T. c #EBEBEF",
"R. c None",
/* pixels */
"R.R.R.R.R.R.R.R.R.R.R.R.R.R.R.R.R.R.R.R.R.R.R.R.R.R.R.R.R.R.R.R.",
"R.R.R.R.R.R.R.R.R.R.R.R.R.R.R.R.R.R.R.R.R.R.R.R.R.R.R.R.R.R.R.R.",
"R.R.R.R.R.R.R.R.R.R.R.R.R.R.R.R.R.R.R.R.R.R.R.R.R.R.R.R.R.R.R.R.",
"R.R.R.R.R.R.R.R.R.R.R.R.R.R.R.R.R.R.R.R.R.R.R.R.R.R.R.R.R.R.R.R.",
"R.R.R.R.R.R.R.R.R.R.R.R.R.R.R.R.R.R.R.R.R.R.R.R.R.R.R.R.R.R.R.R.",
"R.R.R.R.R.R.R.R.R.R.R.R.R.R.R.R.R.R.R.R.R.R.R.R.R.R.R.R.R.R.R.R.",
"R.R.R.R.R.R.R.R.R.R.R.R.R.R.R.R.R.R.R.R.R.R.R.R.R.R.R.R.R.R.R.R.",
"R.R.R.R.R.R.R.R.R.R.R.R.R.R.R.R.R.R.R.R.R.R.R.R.R.R.R.R.R.R.R.R.",
"R.R.R.R.R.R.R.R.R.U.I.L.J.J.F.=.%.R.R.R.R.R.R.R.R.R.R.R.R.R.R.R.",
"R.R.R.R.R.R.R.R.T.J.F.F.F.F.S.*.&...R.R.R.R.R.R.R.R.R.R.R.R.R.R.",
"R.R.R.R.R.R.R.P.Y.F.c.V.D.D.b.a.O.~ P R.R.R.R.R.R.R.R.R.R.R.R.R.",
"R.R.R.R.R.R.| N.L.V.j.k.k.z.k.0./ Y L R.R.R.R.R.R.R.R.R.R.R.R.R.",
"R.R.R.R.R.+.} *.S.k.s.s.s.d.e.1.c I K R.R.R.R.R.R.R.R.R.R.R.R.R.",
"R.R.R.R.{ ! L Q 0.w.e.w.9.w.6.l z U E p.R.R.R.R.R.R.R.R.R.R.R.R.",
"R.R.R.R.{ E K 5 u S q.7.6.,.;.s ; 7 ( f.k.R.R.R.R.R.R.R.R.R.R.R.",
"R.R.R.R._ ( m i # n 3.1.;.;.C 9 2 7 ( f.k.V.R.R.R.R.R.R.R.R.R.R.",
"R.R.R.a.O.H C p X x 3.<.>.C M 8 , 5 A q.d.z.z.R.R.R.R.R.R.R.R.R.",
"R.R.J.v.s.2.C t . x ` F Z V a * + - i -.8.t.y.R.R.R.R.R.R.R.R.R.",
"R.R.F.c.t.1.V r . s ` ( ) b p o @ @ y l S A A R.R.R.R.R.R.R.R.R.",
"R.R.Z.j.>.l k *   s H ^ ~ e t o X # p j v 4 7 6 ' g.c.A.R.R.R.R.",
"R.R.m.r.N a p #   y B R W 0 r o X # r j z > > < F w.h.z.*.R.R.R.",
"R.R.$.X.d * # X   # p n n a r o X # r j r O X @ f >.4.O.#. .R.R.",
"R.R.@.W ; u u * O # p a g 0 q ; % ; : u y = = * f C F ` o.R.R.R.",
"R.R.^ R u h D D R.u u p d T W q w 9 8 i s N h s g l B B R.R.R.R.",
"R.R.R.R.R.R.R.R.R.R.R.R.R.R.R.R.R.R.R.R.R.R.R.R.R.R.R.R.R.R.R.R.",
"R.R.R.R.R.R.R.R.R.R.R.R.R.R.R.R.R.R.R.R.R.R.R.R.R.R.R.R.R.R.R.R.",
"R.R.R.j p R.R.R.R.R.R.R.% y R.R.R.R.R.R.R.R.R.R.R.R.R.R.R.R.R.R.",
"R.R.j f r r R.R.R.R.R.% % t u R.R.R.R.R.R.R.R.R.R.R.R.R.R.R.R.R.",
"p p p r & # R.R.R.R.R.R.R.R.R.R.R.R.R.R.R.R.R.R.R.;.k u 9 7 3 1 ",
"p r p r @ R.R.R.R.R.R.R.R.R.R.R.R.R.R.R.R.R.R.R.:.:.a y 8 5 1 1 ",
"R.R.R.R.R.R.R.R.R.R.R.R.R.R.R.R.R.R.R.R.R.R.R.R.r * & # % - $ R.",
"R.R.R.R.R.R.R.R.R.R.R.R.R.R.R.R.R.R.R.R.R.R.R.R.. . o o o o R.R."
};
