/* XPM */
static char *result[] = {
/* columns rows colors chars-per-pixel */
"32 32 23 1 ",
"  c #13151F",
". c #724B2C",
"X c #734C2C",
"o c #774E2D",
"O c #7A502D",
"+ c #1B2447",
"@ c #343B49",
"# c #545050",
"$ c #485262",
"% c #B47538",
"& c #B7793A",
"* c #B87B3B",
"= c #937961",
"- c #C99548",
"; c #D2A24E",
": c #D6A851",
"> c #294A8C",
", c #2B4E95",
"< c #247AB7",
"1 c #2789CD",
"2 c #73EFE8",
"3 c #AFE9DF",
"4 c None",
/* pixels */
"44444444444444444444444444444444",
"44444444444444444444444444444444",
"44444444444444444444444444444444",
"4444444444444=%%=444444444444444",
"444444444444;&;;&;44444444444444",
"444444444444::3 ::44444444444444",
"44444444444%%3   %%4444444444444",
"44444444444::@  +::4444444444444",
"44444444444:$  1,+:.444444444444",
"44444444444%$ 211,%.444444444444",
"44444444444%$ 221,%.444444444444",
"44444444444*$  <> *X444444444444",
"44444444444:$ +   :O444444444444",
"44444444444:21  2 :O444444444444",
"44444444444:$   2,:o444444444444",
"44444444444:$     :O444444444444",
"44444444444%$     %.444444444444",
"44444444444%$     %.444444444444",
"44444444444%$     %.444444444444",
"44444444444:$@    :.444444444444",
"44444444444*:$   :*4444444444444",
"44444444444%%$   %%4444444444444",
"444444444444::$$::44444444444444",
"444444444444%-%%-%44444444444444",
"4444444444444=%%=444444444444444",
"44444444444444444444444444444444",
"44444444444444444444444444444444",
"444444444444#####444444444444444",
"444444444444#######4444444444444",
"44444444444444444444444444444444",
"44444444444444444444444444444444",
"44444444444444444444444444444444"
};
