/* XPM */
static char *result[] = {
/* columns rows colors chars-per-pixel */
"32 32 137 2 ",
"   c #0F161E",
".  c #161616",
"X  c #131418",
"o  c #121619",
"O  c #171518",
"+  c #12121E",
"@  c #10141D",
"#  c #11151E",
"$  c #10141F",
"%  c #12151E",
"&  c #15151D",
"*  c #14141E",
"=  c #15151F",
"-  c #16141F",
";  c #13181E",
":  c #18181A",
">  c #051626",
",  c #0E1720",
"<  c #061A21",
"1  c #0B1820",
"2  c #131220",
"3  c #151320",
"4  c #141321",
"5  c #121420",
"6  c #131521",
"7  c #121621",
"8  c #131522",
"9  c #131723",
"0  c #141420",
"q  c #151521",
"w  c #161421",
"e  c #141720",
"r  c #151422",
"t  c #161422",
"y  c #161523",
"u  c #141622",
"i  c #161622",
"p  c #121524",
"a  c #151424",
"s  c #151D28",
"d  c #011A38",
"f  c #191C47",
"g  c #191E46",
"h  c #171E48",
"j  c #171E4A",
"k  c #1A1D48",
"l  c #191E48",
"z  c #191D4A",
"x  c #192E59",
"c  c #1A2F5A",
"v  c #1B305B",
"b  c #19305C",
"n  c #3F4A4E",
"m  c #3E4851",
"M  c #3F4A50",
"N  c #3F4952",
"B  c #404B4F",
"V  c #404B51",
"C  c #825A15",
"Z  c #835B15",
"A  c #825917",
"S  c #815A17",
"D  c #825B16",
"F  c #835B16",
"G  c #855814",
"H  c #845915",
"J  c #865915",
"K  c #855A15",
"L  c #855A16",
"P  c #835C17",
"I  c #845C17",
"U  c #835A18",
"Y  c #855918",
"T  c #845B19",
"R  c #8D6311",
"E  c #8F6113",
"W  c #8E6412",
"Q  c #8E6314",
"!  c #8E6315",
"~  c #906312",
"^  c #916413",
"/  c #916115",
"(  c #906214",
")  c #906215",
"_  c #966614",
"`  c #956417",
"'  c #966516",
"]  c #956616",
"[  c #9D6E1E",
"{  c #9C6F1E",
"}  c #B06E00",
"|  c #B16F00",
" . c #B16F01",
".. c #B26E01",
"X. c #AF7000",
"o. c #B27000",
"O. c #A1711D",
"+. c #A3701D",
"@. c #A2721E",
"#. c #A4711E",
"$. c #B17612",
"%. c #B27713",
"&. c #B37814",
"*. c #B67B15",
"=. c #B57C15",
"-. c #B77C14",
";. c #B77C16",
":. c #9C6E20",
">. c #9D6E20",
",. c #B27C22",
"<. c #B07D24",
"1. c #B27C24",
"2. c #B17E25",
"3. c #B17D27",
"4. c #1E5193",
"5. c #254786",
"6. c #2B4884",
"7. c #284B8F",
"8. c #304793",
"9. c #107FAA",
"0. c #207CBB",
"q. c #3D7CC3",
"w. c #2084C2",
"e. c #69E3D6",
"r. c #6EDFE7",
"t. c #72DEEA",
"y. c #7BEEE1",
"u. c #FDFDFD",
"i. c #FEFEFC",
"p. c #FFFFFD",
"a. c #FFFDFE",
"s. c #FFFDFF",
"d. c #FDFEFF",
"f. c #FEFEFE",
"g. c #FFFEFF",
"h. c #FEFFFF",
"j. c white",
/* pixels */
"j.j.j.j.j.j.j.j.j.j.f.j.j.j.j.g.j.j.j.j.j.p.j.j.j.j.j.j.j.j.j.j.",
"j.j.j.j.j.j.j.j.p.f.j.g.j.f.j.h.j.j.j.j.j.j.j.j.j.j.j.j.j.j.j.j.",
"j.j.j.j.j.j.j.j.j.j.f.p.j.h.+.#.! +.h.j.f.f.j.h.j.j.j.j.j.j.j.j.",
"j.j.j.j.j.j.j.j.f.h.h.j.s.O.E _ ^ W ` j.h.i.j.u.j.j.j.j.j.j.j.j.",
"j.j.j.j.j.j.j.j.j.f.f.f.' S I 8 8 L I ] f.s.j.j.j.j.j.j.j.j.j.j.",
"j.j.j.j.j.j.j.j.h.j.j.H D K q = M r L C I j.f.f.j.j.j.j.j.j.j.j.",
"j.j.j.j.j.j.j.j.f.j.C P F q r q 0 M q J L C f.j.j.j.j.j.j.j.j.j.",
"j.j.j.j.j.j.j.j.h.+.Q +.i w q i q q 0 = #.( @.j.j.j.j.j.j.j.j.j.",
"j.j.j.j.j.j.j.j.j.D ,.M r q + @ $ g q q i 1.I p.j.j.j.j.j.j.j.j.",
"j.j.j.j.j.j.j.j.j.T =.m * r @ 9.0.5.q u 0 *.U j.j.j.j.j.j.j.j.j.",
"j.j.j.j.j.j.j.j.j.Z -.= a # # r.t.6.q 0 = ;.F j.j.j.j.j.j.j.j.j.",
"j.j.j.j.j.j.j.j.j.Y } 4 & 6   w.e.7.% i q } F j.j.j.j.j.j.j.j.j.",
"j.j.j.j.j.j.j.j.j.R o.u 6 o u > 4.; t q i X.! j.j.j.j.j.j.j.j.j.",
"j.j.j.j.j.j.j.j.j.)  .q = 9 s 6 7 c . q q  ./ j.j.j.j.j.j.j.j.j.",
"j.j.j.j.j.j.j.j.f.:.| r y d 8.p 1 , 2 0 i | [ j.j.j.j.j.j.j.j.j.",
"j.j.j.j.j.j.j.j.j.>.| q 6 y.6 q < q.X i q | >.j.j.j.j.j.j.j.j.j.",
"j.j.j.j.j.j.j.j.j.1.| 3 u 0 e 6 h : O q q  .1.g.j.j.j.j.j.j.j.j.",
"j.j.j.j.j.j.j.j.j.1.| i q q q l l 3 q = q | 1.j.j.j.j.j.j.j.j.j.",
"j.j.j.j.j.j.j.j.j.>.| w q q q 0 c l q q q o.>.j.j.j.j.j.j.j.j.j.",
"j.j.j.j.j.j.j.j.j.[  .q 6 q z 6 x f q q q X.{ j.j.j.j.j.j.j.j.j.",
"j.j.j.j.j.j.j.j.j.:.o.q i q l q x v 6 w * | >.j.j.j.j.j.j.j.j.j.",
"j.j.j.j.j.j.j.j.j.~ | q q q i q h b q B q | ( j.j.j.j.j.j.j.j.j.",
"j.j.j.j.j.j.j.j.j./ | q 6 * 5 j k i q 4 i | ( j.j.j.j.j.j.j.j.j.",
"j.j.j.j.j.j.j.j.j.D o.q i q i q y k q V q | F f.j.j.j.j.j.j.j.j.",
"j.j.j.j.j.j.j.j.j.F | 8 = r q q l q e n q | F j.j.j.j.j.j.j.j.j.",
"j.j.j.j.j.j.j.j.j.F | 0 i q r 0 w N M 0 q | L p.j.j.j.j.j.j.j.j.",
"j.j.j.j.j.j.j.j.j.F | q - 3 i w q r r w 4 } F j.j.j.j.j.j.j.j.j.",
"j.j.j.j.j.j.j.j.j.F ..| 3.2.$.&.%.$.,.<.o.| F j.j.j.j.j.j.j.j.j.",
"j.j.j.j.j.j.j.j.j.j.Z F G H L L C F A L Z F j.j.j.j.j.j.j.j.j.j.",
"j.j.j.j.j.j.j.j.j.j.j.j.d.h.h.j.h.j.j.j.j.j.j.j.j.j.j.j.j.j.j.j.",
"j.j.j.j.j.j.j.j.j.h.j.u.a.j.j.f.j.h.j.p.j.j.j.j.j.j.j.j.j.j.j.j.",
"j.j.j.j.j.j.j.j.j.j.j.j.j.j.j.j.j.j.h.j.j.j.j.j.j.j.j.j.j.j.j.j."
};
