/* XPM */
static char *result[] = {
/* columns rows colors chars-per-pixel */
"32 32 124 2 ",
"   c #0F2F3C",
".  c #142E34",
"X  c #172E3C",
"o  c #1A2C3A",
"O  c #0D323E",
"+  c #133036",
"@  c #14333C",
"#  c #1B333E",
"$  c #112E40",
"%  c #133542",
"&  c #1B3543",
"*  c #163B45",
"=  c #1B3A45",
"-  c #153649",
";  c #1B374C",
":  c #153B4C",
">  c #1B3C4C",
",  c #0C3E52",
"<  c #1D3750",
"1  c #153D52",
"2  c #1D3E55",
"3  c #1D3F58",
"4  c #203641",
"5  c #213A46",
"6  c #233D4C",
"7  c #2A3B4F",
"8  c #223C54",
"9  c #293259",
"0  c #223B59",
"q  c #2F3D5A",
"w  c #2D3A64",
"e  c #194045",
"r  c #15434E",
"t  c #1C434D",
"y  c #0A4252",
"u  c #0F4758",
"i  c #154552",
"p  c #1C4155",
"a  c #134B55",
"s  c #1C4B56",
"d  c #15435C",
"f  c #1D415A",
"g  c #164A5C",
"h  c #1C4B5C",
"j  c #12525C",
"k  c #1B525E",
"l  c #22434C",
"z  c #234454",
"x  c #2A4757",
"c  c #234B55",
"v  c #22445D",
"b  c #29455D",
"n  c #234B5C",
"m  c #284D5D",
"M  c #38495D",
"N  c #21535C",
"B  c #2A535C",
"V  c #1D4760",
"C  c #174C60",
"Z  c #1C4C62",
"A  c #1E4D6D",
"S  c #155466",
"D  c #1D5364",
"F  c #175967",
"G  c #1F5B66",
"H  c #1D5468",
"J  c #1E5B6C",
"K  c #185470",
"L  c #1B5A72",
"P  c #234560",
"I  c #2A4562",
"U  c #224C63",
"Y  c #294C64",
"T  c #224C69",
"R  c #2A4C6B",
"E  c #334E6C",
"W  c #245364",
"Q  c #2B5263",
"!  c #245A66",
"~  c #2C5B65",
"^  c #24536B",
"/  c #2A546C",
"(  c #21596C",
")  c #2B5A6C",
"_  c #32546E",
"`  c #335B6D",
"'  c #244E70",
"]  c #235372",
"[  c #285671",
"{  c #245E71",
"}  c #2B5B73",
"|  c #255C7B",
" . c #2E5D7B",
".. c #345F74",
"X. c #345D79",
"o. c #1D6073",
"O. c #1D607A",
"+. c #2D636C",
"@. c #256273",
"#. c #296375",
"$. c #2D6A75",
"%. c #24657A",
"&. c #2A6579",
"*. c #256B7B",
"=. c #2B6A7C",
"-. c #326175",
";. c #3C6777",
":. c #32637A",
">. c #32697B",
",. c #22727D",
"<. c #405165",
"1. c #285E82",
"2. c #305E80",
"3. c #2C6381",
"4. c #2E6A84",
"5. c #326483",
"6. c #346C88",
"7. c #2F7082",
"8. c #297885",
"9. c #337281",
"0. c #3D7282",
"q. c #38718C",
"w. c #367C88",
"e. c #426E87",
/* pixels */
"= p t V R 3 f 3 3 Z A ^ } @.{ } U d P 3 3 f W 3 ) h 3 h N 2 3 6 ",
"3 3 3 3 P 3 < Z P Q Q v f :.U v v v P 3 3 3 v v U v s ) ! p 3 p ",
"p 3 3 L [ 0 3 3 U v : p f 0 v 2 6 v 3 3 W 2 P i > 1 z f f p 3 = ",
"& 5 3 5.P / A f / Y 2 2 1 f p Y 3 R v ^ Q i f : > P f = e * v & ",
"s N 2 ^ f ]  .R d P 8 0 3 f f 0 3 f z z z 2 <.& p 0 6 p v x P - ",
"2 $.$.z { 4.1.' T U v v Y f P P v p 2 f 2 2 q % p ^ D W t { p 0 ",
"` v p v f A K ] T / P f f V _ W n 3 b Q 3 W z M 0 c y j k 2 $.k ",
"@ t z A 3 3 0 T V Y [ ) } ..T ) Y p 3 } Y Q x 2 & p - % + v N p ",
"f v @.T ' R 3 3 R f < U v ) U v ` v Q / 3 3 % = - W >.c % p v f ",
"x v v f R f f 3 < v T T ^ U ) 2 r 1 s k f 8 n Q U Z S G F @.! @ ",
"3 3 f T v p 0 0 v ; P [ / : 3 3 v p I U s h Z ) ) ;.a i k D Z z ",
"3 f $ Y v f p 0 3 E Q / T ^ 3 w 9 b 2 p ! #.W -.i X & - & 3 v > ",
"3 p 3 ^ Y 3 [ 2.T f v f U g 1 v , P : -.>.{ h z % . 5 & # f v t ",
"P V 0 P f 3 ^ 3 X.) [ d V U H f : i n U [ ! z O 2 W r 3 0 f h i ",
"h P v P I 3 3 f Z :.^ | %.T V :.f Z n n 3 2 : : >.h c 3 f P D j ",
") P X 3 3 U [ ^ 6.6.:.1.L { C } ^ g c Y B 2 v ) ( c > f & = v Z ",
"$ v i R f 5.[ ^ C ^ p | ^ D J V u Z t ; Z i n >.o.k a p f X v ) ",
"+ % v 2 f X.d U | | 3 f L %.1 : p f D p c > W ( f 3 f 5 > v v @ ",
"+ o 3 3 2 P } e.] A K ^ =.( ^ i : , ^ g : - D F 2   3 & P 3 P f ",
"Z f f _ T ] 3.U Y R 0 v V c - / } { q.J D - y 7.S - f ; X 3 2 3 ",
"c P 3 Z Z J C Y c #.H V A h Z g G 2 @.#.D H %.2 k f f = N r f f ",
"{ @.F 3.#.o.4.h ^ :.H / H W g ^ 2 3 G W ~ ~ k f l l 0 c * 2 p 3 ",
"+.0.k L *.%.&.,.*.:.9.8.=.k V n C ^ Z n s c G s k c l l f P P { ",
"3 P % #.&.T ^ L h &.3 3 g 0 U D Z C ^ f Z g H D f p l l p g P 2 ",
"2 & 3 { @.L %.*.3 H &.C v 3 3 Z D Y H f Z h { +.+.f 3 p c % s e ",
"= t 3 g } #.&.2 #.D ^ p V p 3 m D Z C s g h ^ y $.r = f P z P p ",
"3 0 l Y Z ^ F f >.! f p f 2 3 g D T V >.J v p N B s e e 3 l t 0 ",
"% v #.v f } f 3 >...0 / Y ^ Y f 3 3 p ! @.t e > * k +.1 c p 6 7 ",
"+.f #.&.*.f f &.f 2 ^ V [ v [ 2 / 2 0 i g v N s i p i n $.f & & ",
"c 0 f 3 f =.J P 2 P 3 d p f v g :.P 3 3 p 2 t m f f h ) w.f 3 p ",
"3 3 2 v v f v f P P 3 3 3 v v v v L ^ P v p ) v ) ) 3 P 2 f 3 3 ",
"> 3 f v 0 2 v _ 3 D p 3 3 P @.W v ) ^ D W c s 3 2 ~ f z t t f > "
};
