/* XPM */
static char *result[] = {
/* columns rows colors chars-per-pixel */
"32 32 112 2 ",
"   c black",
".  c #060203",
"X  c #070203",
"o  c #070204",
"O  c #060304",
"+  c #080608",
"@  c #0B0608",
"#  c #0D0609",
"$  c #120304",
"%  c #150305",
"&  c #160305",
"*  c #170305",
"=  c #180306",
"-  c #190406",
";  c #120508",
":  c #240407",
">  c #29070C",
",  c #28070D",
"<  c #2A070D",
"1  c #27080C",
"2  c #2A080D",
"3  c #2A080E",
"4  c #2C080D",
"5  c #2F080E",
"6  c #31080F",
"7  c #32080F",
"8  c #390811",
"9  c #390911",
"0  c #3A0811",
"q  c #3A0911",
"w  c #390A10",
"e  c #3C0911",
"r  c #3C0912",
"t  c #3D0912",
"y  c #3C0A12",
"u  c #3D0A12",
"i  c #3E0A12",
"p  c #500000",
"a  c #400A13",
"s  c #4F0C17",
"d  c #530C18",
"f  c #560D19",
"g  c #590D1A",
"h  c #5D0E1B",
"j  c #5E0E1B",
"k  c #5F0E1B",
"l  c #600F1C",
"z  c #610F1C",
"x  c #620F1C",
"c  c #630F1C",
"v  c #630F1D",
"b  c #640F1D",
"n  c #650F1D",
"m  c #6B101F",
"M  c #6C101F",
"N  c #6D1120",
"B  c #6E1020",
"V  c #701120",
"C  c #711121",
"Z  c #721121",
"A  c #701221",
"S  c #721222",
"D  c #741222",
"F  c #751222",
"G  c #741322",
"H  c #761222",
"J  c #771223",
"K  c #761323",
"L  c #771323",
"P  c #781223",
"I  c #7A1324",
"U  c #7B1324",
"Y  c #7E1325",
"T  c #7F1325",
"R  c #801425",
"E  c #811426",
"W  c #821426",
"Q  c #831426",
"!  c #831427",
"~  c #851527",
"^  c #871528",
"/  c #871628",
"(  c #8D162A",
")  c #8E172A",
"_  c #8F172B",
"`  c #90172B",
"'  c #91172B",
"]  c #92182C",
"[  c #93182C",
"{  c #94182C",
"}  c #95182D",
"|  c #96182D",
" . c #97192D",
".. c #98192E",
"X. c #99192E",
"o. c #9A192E",
"O. c #9C1A2F",
"+. c #9D1A2F",
"@. c #9E1A30",
"#. c #A11B31",
"$. c #A21B31",
"%. c #A31B31",
"&. c #A31B32",
"*. c #A41C32",
"=. c #A61C32",
"-. c #A61C33",
";. c #A71C33",
":. c #B4B4B4",
">. c gray76",
",. c gray81",
"<. c gray86",
"1. c None",
/* pixels */
"1.1.1.1.1.1.1.1.1.1.1.1.1.1.1.1.1.1.1.1.1.1.1.1.1.1.1.1.1.1.1.1.",
"1.1.1.1.1.1.1.1.1.1.1.1.1.1.1.1.1.1.1.1.1.1.1.1.1.1.1.1.1.1.1.1.",
"1.1.1.1.1.1.1.1.1.1.1.9 r q q q q u 8 1.1.1.1.1.1.1.1.1.1.1.1.1.",
"1.1.1.1.1.1.1.1.1.1., B ..$.#.#.#.*./ + 1.1.1.1.1.1.1.1.1.1.1.1.",
"1.1.1.1.1.1.1.1.1.> V X.$.=.K < q 4 L ` @ 1.1.1.1.1.1.1.1.1.1.1.",
"1.1.1.1.1.1.1.1.2 Z o.$.-.G O       . G [ # 1.1.1.1.1.1.1.1.1.1.",
"1.1.1.1.1.1.1.1.2 Z o.;.A o           X A } ; 1.1.1.1.1.1.1.1.1.",
"1.1.1.1.1.1.1.3 J T ..;.A o           X A } ; 1.1.1.1.1.1.1.1.1.",
"1.1.1.1.1.1.1.3 J W Y +.S   ,.>.    :.<.p } ; 1.1.1.1.1.1.1.1.1.",
"1.1.1.1.1.1.1.3 U s M @.S   ,.>.    :.<.p } ; 1.1.1.1.1.1.1.1.1.",
"1.1.1.1.1.1.1.3 U s M @.S o           & j P > 1.1.1.1.1.1.1.1.1.",
"1.1.1.1.1.1.1.1.9 5 C R O.K O         & j P > 1.1.1.1.1.1.1.1.1.",
"1.1.1.1.1.1.1.1.1.1., Z ! ~ v -     * z J , 1.1.1.1.1.1.1.1.1.1.",
"1.1.1.1.1.1.1.1.1.1.1.9 6 m ^ b 6 7 x F 1 1.1.1.1.1.1.1.1.1.1.1.",
"1.1.1.1.1.1.1.1.1.1., Z ! Y { %.#.#.$...B , 1.1.1.1.1.1.1.1.1.1.",
"1.1.1.1.1.1.1.1.1.> V X.$.#.#.#.#.#.#.$.X.V > 1.1.1.1.1.1.1.1.1.",
"1.1.1.1.1.1.1.1.1.> V X.$.#.#.#.#.#.#.$.X.V > 1.1.1.1.1.1.1.1.1.",
"1.1.1.1.1.1.1.1.1.; _ &.#.#.#.#.#.#.#.#.&._ ; 1.1.1.1.1.1.1.1.1.",
"1.1.1.1.1.1.1.1.2 Z o.$.#.#.#.#.#.#.#.#.&._ ; 1.1.1.1.1.1.1.1.1.",
"1.1.1.1.1.1.1.1.2 Z o.$.#.#.#.%.' ) &.#.$.o.Z 2 1.1.1.1.1.1.1.1.",
"1.1.1.1.1.1.1.1.2 Z o.$.#.#.#.%.' ) &.#.$.o.Z 2 1.1.1.1.1.1.1.1.",
"1.1.1.1.1.1.1.1.2 Z o.$.#.#.&.{ k g ] *. .T F 2 1.1.1.1.1.1.1.1.",
"1.1.1.1.1.1.1.3 J W Y o.( | ] W c h Q _ o.T F 2 1.1.1.1.1.1.1.1.",
"1.1.1.1.1.1.1.3 J W E Y X.' Q n % $ l ~ E Q F 2 1.1.1.1.1.1.1.1.",
"1.1.1.1.1.1.1.3 U s V Q E ~ v -   = l ^ N d I 2 1.1.1.1.1.1.1.1.",
"1.1.1.1.1.1.1.1.9 5 H f m ^ v -     * j ^ D > 1.1.1.1.1.1.1.1.1.",
"1.1.1.1.1.1.1.1.1.w a 1.0 t i 1.1.1.: y e 9 1.1.1.1.1.1.1.1.1.1.",
"1.1.1.1.1.1.1.1.1.1.1.1.    1.1.1.1.1.  1.1.1.1.1.1.1.1.1.1.1.1.",
"1.1.1.1.1.1.1.1.1.1.1.1.1.  1.1.1.1.1.  1.1.1.1.1.1.1.1.1.1.1.1.",
"1.1.1.1.1.1.1.1.1.1.1.1.1.  1.1.1.1.1.  1.1.1.1.1.1.1.1.1.1.1.1.",
"1.1.1.1.1.1.1.1.1.1.1.1.1.1.1.1.1.1.1.1.1.1.1.1.1.1.1.1.1.1.1.1.",
"1.1.1.1.1.1.1.1.1.1.1.1.1.1.1.1.1.1.1.1.1.1.1.1.1.1.1.1.1.1.1.1."
};
