/* XPM */
static char *result[] = {
/* columns rows colors chars-per-pixel */
"32 32 36 1 ",
"  c black",
". c #010000",
"X c #010101",
"o c #000002",
"O c gray2",
"+ c #060606",
"@ c #090909",
"# c gray4",
"$ c #0B0B0B",
"% c #0E0E0E",
"& c gray6",
"* c #101010",
"= c #111111",
"- c gray7",
"; c #131313",
": c gray8",
"> c #151515",
", c #161616",
"< c gray9",
"1 c #181818",
"2 c #191919",
"3 c gray10",
"4 c #1B1B1B",
"5 c #1F1F1D",
"6 c #1E1E1E",
"7 c gray12",
"8 c #202020",
"9 c #700000",
"0 c #710100",
"q c #FFFFFD",
"w c #FDFFFE",
"e c #FEFEFE",
"r c #FEFEFF",
"t c #FFFEFF",
"y c #FEFFFF",
"u c white",
/* pixels */
"uuuuuuuuuuuuuuuuuuuuuuuuuuuuuuuu",
"uuuuuuuuuruwu X .  eyyuuuuuuuuuu",
"uuuuuuuuuuuuo &*** ouuuuuuuuuuuu",
"uuuuuuuuueu X&2773> Xuuuuuuuuuuu",
"uuuuuuuuuuuX*477783* euuuuuuuuuu",
"uuuuuuuuteq 3605597: quuuuuuuuuu",
"uuuuuuuueueo38977973oeuuuuuuuuuu",
"uuuuuuuuuuu 38777763*uuuuuuuuuuu",
"uuuuuuuuuuu >377673<= uuuuuuuuuu",
"uuuuuuuuuuu >3<<<<<<* uuuuuuuuuu",
"uuuuuuuuuuu *<:<,1<<:*uuuuuuuuuu",
"uuuuuuuuuuuX*>1,<,1<:&euuuuuuuuu",
"uuuuuuuuueuX*;;::>,<:= uuuuuuuuu",
"uuuuuuuuuu  *:>::<><>* uuuuuuuuu",
"uuuuuuuuuu =:::::<:,:: uuuuuuuuu",
"uuuuuuuuuu *>::<:<:<:: euuuuuuuu",
"uuuuuuuuuu =:::<:1<::: uuuuuuuuu",
"uuuuuuuuuu*::<:1::<::: uuuuuuuuu",
"uuuuuuuuuu*:><:,<:<::: uuuuuuuuu",
"uuuuuuuuuu *;1;<:<:>:: uuuuuuuuu",
"uuuuuuuuuu :>,;::>-<::$uuuuuuuuu",
"uuuuuuuuuu#%:>&:&:::>%Xuuuuuuuuu",
"uuuuuuuueuO:&@O  *:::# uuuuuuuuu",
"uuuuuuuuuu #+& u  #&&O uuuuuuuuu",
"uuuuuuuuuu     uu  O & euuuuuuuu",
"uuuuuuuuuu u u uu eu   uuuuuuuuu",
"uuuuuuuuuu e uuuXuXe u uuuuuuuuu",
"uuuuuuuuuuuu u u u uXeXuuuuuuuuu",
"uuuuuuuuuu euu uuuu eu uuuuuuuuu",
"uuuuuuuuuu u uuuu uXuuXuuuuuuuuu",
"uuuuuuuuuuuuuu uu uuuuuuuuuuuuuu",
"uuuuuuuuuuu uuueuuu uu uuuuuuuuu"
};
