/* XPM */
static char *result[] = {
/* columns rows colors chars-per-pixel */
"32 32 35 1 ",
"  c black",
". c #010000",
"X c #010101",
"o c #000002",
"O c #020202",
"+ c gray2",
"@ c gray4",
"# c #0B0B0B",
"$ c #0E0E0E",
"% c gray6",
"& c #101010",
"* c #111111",
"= c gray7",
"- c #131313",
"; c gray8",
": c #151515",
"> c #161616",
", c gray9",
"< c #181818",
"1 c #191919",
"2 c gray10",
"3 c #1B1B1B",
"4 c #1F1F1D",
"5 c #1E1E1E",
"6 c gray12",
"7 c #202020",
"8 c #700000",
"9 c #710100",
"0 c #FFFFFD",
"q c #FDFFFE",
"w c #FEFEFE",
"e c #FEFEFF",
"r c #FFFEFF",
"t c #FEFFFF",
"y c white",
/* pixels */
"yyyyyyyyyyyyyyyyyyyyyyyyyyyyyyyy",
"yyyyyyyyyeyqy X .  wttyyyyyyyyyy",
"yyyyyyyyyyyyo %&&& oyyyyyyyyyyyy",
"yyyyyyyyywy X%1662: Xyyyyyyyyyyy",
"yyyyyyyyyyyX&366672& wyyyyyyyyyy",
"yyyyyyyyrw0 2594486; 0yyyyyyyyyy",
"yyyyyyyywywo27866862owyyyyyyyyyy",
"yyyyyyyyyyy 27666652&yyyyyyyyyyy",
"yyyyyyyyyyy :266562,* yyyyyyyyyy",
"yyyyyyyyyyy :2,,,,,,& yyyyyyyyyy",
"yyyyyyyyyyy &,;,><,,;&yyyyyyyyyy",
"yyyyyyyyyyyX&:<>,><,;%wyyyyyyyyy",
"yyyyyyyyywyX&--;;:>,;* yyyyyyyyy",
"yyyyyyyyyy  &;:;;,:,:& yyyyyyyyy",
"yyyyyyyyyy *;;;;;,;>;; yyyyyyyyy",
"yyyyyyyyyy &:;;,;,;,;; wyyyyyyyy",
"yyyyyyyyyyX&;;;,;<,;;; yyyyyyyyy",
"yyyyyyyyyy&;:,;<;;,;;; yyyyyyyyy",
"yyyyyyyyyy&:;,;>,;,;;; yyyyyyyyy",
"yyyyyyyyyy %;,;<;,;:;; yyyyyyyyy",
"yyyyyyyyyy ;;,-;;:=,;;#yyyyyyyyy",
"yyyyyyyyyy@$;;%:%;;;:$Xyyyyyyyyy",
"yyyyyyyyyy+;&@+  &;;;@ yyyyyyyyy",
"yyyyyyyyyy @+%X   @%%+ yyyyyyyyy",
"yyyyyyyyyy     y   + % yyyyyyyyy",
"yyyyyyyyyy X   yy y    yyyyyyyyy",
"yyyyyyyyyyXw  y wXwy   yyyyyyyyy",
"yyyyyyyyyywy yy yy w  Xyyyyyyyyy",
"yyyyyyyyyw y yyyyw yOw yyyyyyyyy",
"yyyyyyyyyy yyyyy yywyy yyyyyyyyy",
"yyyyyyyyyyyww yyyy y yyyyyyyyyyy",
"yyyyyyyyyy yyyy yyyyXy yyyyyyyyy"
};
